<?xml version="1.0" encoding="utf-8"?>
<!-- Generator: Adobe Illustrator 16.0.0, SVG Export Plug-In . SVG Version: 6.00 Build 0)  -->
<!DOCTYPE svg PUBLIC "-//W3C//DTD SVG 1.1//EN" "http://www.w3.org/Graphics/SVG/1.1/DTD/svg11.dtd">
<svg version="1.1" xmlns="http://www.w3.org/2000/svg" xmlns:xlink="http://www.w3.org/1999/xlink" x="0px" y="0px" width="176px"
	 height="27px" viewBox="0 0 176 27" enable-background="new 0 0 176 27" xml:space="preserve">
<g id="Layer_3">
	<rect fill="none" width="176" height="27"/>
</g>
<g id="Main">
	<g>
		<g>
			<path fill="#00B3E3" d="M25.458,6.28v1.75c2.587,0.251,4.637,2.37,4.776,4.988h1.743C31.835,9.439,29.007,6.539,25.458,6.28"/>
			<path fill="#00B3E3" d="M25.458,9.342v2.808c0,0.48,0.391,0.869,0.87,0.869h2.599C28.793,11.12,27.326,9.583,25.458,9.342"/>
			<path fill="#00B3E3" d="M25.458,3.228v1.746c4.27,0.263,7.678,3.748,7.822,8.045h1.747C34.882,7.756,30.688,3.492,25.458,3.228"
				/>
			<path fill="#00B3E3" d="M38.068,11.965c-0.697-6.058-5.503-10.86-11.563-11.553C26.5,0.41,26.492,0.41,26.485,0.409
				c-0.022-0.003-0.044-0.005-0.067-0.008l-0.001,0.003c-0.028-0.005-0.06-0.011-0.089-0.011c-0.479,0-0.87,0.39-0.87,0.869v0.662
				c5.949,0.266,10.726,5.116,10.873,11.094h0.888c0.478,0,0.866-0.384,0.868-0.863c0-0.002,0.003-0.005,0.003-0.005
				C38.09,12.087,38.08,12.025,38.068,11.965"/>
			<path fill="#A03123" d="M25.458,14.852V25.74c0,0.478,0.391,0.867,0.87,0.867c0.029,0,0.061-0.005,0.089-0.01h0.001
				c0.023-0.002,0.045-0.004,0.067-0.006c0.007-0.002,0.015-0.002,0.02-0.003c6.061-0.694,10.866-5.495,11.563-11.554
				c0.012-0.06,0.021-0.121,0.021-0.184c0-0.002-0.003-0.004-0.003-0.004c-0.002-0.479-0.391-0.865-0.868-0.865H26.328
				C25.849,13.983,25.458,14.372,25.458,14.852"/>
			<polygon fill="#FFFFFF" points="29.631,18.175 27.536,18.175 27.536,20.268 29.631,20.268 29.631,22.362 31.724,22.362 
				31.724,20.268 33.82,20.268 33.82,18.175 31.724,18.175 31.724,16.082 29.631,16.082 			"/>
			<path fill="#407CCA" d="M24.237,21.184c-0.077,0-0.14,0.016-0.206,0.053c-0.144,0.084-0.207,0.251-0.296,0.383
				c-0.123,0.188-0.248,0.374-0.361,0.566c-0.171,0.284-0.346,0.584-0.576,0.843c-0.494,0.557-1.109,1.156-1.217,1.922
				c-0.032,0.223-0.04,0.479-0.117,0.688c-0.053,0.14-0.056,0.333,0.042,0.459c0.049,0.063,0.146,0.113,0.232,0.152
				c0.565,0.143,1.146,0.252,1.736,0.321c0.059,0.014,0.12,0.021,0.185,0.021V26.59c0.479,0,0.866-0.386,0.867-0.863v-0.203v-2.065
				v-1.29v-0.58c0-0.023,0.001-0.049,0.001-0.076c0-0.078-0.006-0.156-0.054-0.221C24.419,21.217,24.327,21.184,24.237,21.184"/>
			<path fill="#407CCA" d="M19.891,25.441c0.049-0.014,0.135-0.037,0.173-0.082c0.106-0.131,0.055-0.381,0.055-0.531
				c0.001-0.208,0.022-0.415,0.061-0.62c0.074-0.406,0.213-0.797,0.358-1.178c0.17-0.445,0.333-0.899,0.39-1.36
				c0.041-0.348-0.005-0.729-0.005-1.08c0-0.359,0.03-0.731-0.049-1.079c-0.073-0.33-0.262-0.436-0.479-0.666
				c-0.184-0.197-0.31-0.422-0.468-0.634c-0.243-0.326-0.509-0.54-0.611-0.948c-0.095-0.389,0.011-0.78,0.011-1.172
				c0-0.204,0.004-0.407,0-0.61c-0.004-0.215-0.113-0.318-0.144-0.515c-0.027-0.189-0.034-0.414-0.126-0.574
				c-0.067-0.12-0.217-0.179-0.309-0.258c-0.236-0.202-0.396-0.464-0.631-0.633c-0.291-0.208-0.647-0.248-0.986-0.375
				c-0.311-0.112-0.575-0.234-0.865-0.399c-0.166-0.094-0.303-0.167-0.46-0.282c-0.157-0.112-0.218-0.23-0.314-0.398
				c-0.095-0.159-0.153-0.264-0.2-0.458c-0.039-0.152-0.054-0.313-0.092-0.466c-0.056-0.208-0.071-0.436-0.155-0.635
				c-0.065-0.149-0.181-0.276-0.259-0.408c-0.197-0.323-0.513-0.539-0.801-0.771c-0.072-0.058-0.145-0.12-0.212-0.184
				c-0.165-0.159-0.308-0.342-0.539-0.403c-0.111-0.028-0.245-0.043-0.349,0.008c-0.12,0.062-0.221,0.198-0.291,0.337
				c-0.059,0.165-0.115,0.332-0.168,0.5c-0.045,0.156-0.09,0.313-0.134,0.469c-0.156,0.575-0.273,1.159-0.353,1.749
				c-0.035,0.263-0.059,0.526-0.078,0.792c-0.002,0.042-0.006,0.084-0.009,0.124c-0.017,0.269-0.025,0.539-0.025,0.807
				c0,0.049,0.004,0.097,0.004,0.144c0.002,0.172,0.005,0.34,0.014,0.511c0.006,0.124,0.017,0.247,0.024,0.37
				c0.008,0.092,0.013,0.186,0.023,0.276c0.015,0.146,0.032,0.288,0.051,0.432c0.009,0.066,0.017,0.129,0.027,0.196
				c0.023,0.162,0.05,0.321,0.079,0.481c0.008,0.037,0.014,0.072,0.021,0.107c0.821,4.21,3.646,7.698,7.444,9.44
				c0.065,0.013,0.132,0.015,0.203,0.015C19.782,25.48,19.832,25.458,19.891,25.441"/>
			<path fill="#407CCA" d="M24.526,13.766v-1.902V9.661V7.363v-2.19V3.298V1.942V1.312V1.29c0-0.477-0.384-0.864-0.867-0.87
				c-0.066,0-0.129,0.009-0.191,0.023c-0.362,0.083-0.749,0.102-1.117,0.179c-0.372,0.076-0.738,0.167-1.104,0.275
				c-0.541,0.161-1.075,0.358-1.591,0.587c-0.258,0.115-0.512,0.237-0.761,0.368c-0.288,0.15-0.557,0.308-0.774,0.52
				c-0.159,0.154-0.29,0.336-0.384,0.564c-0.18,0.445-0.216,0.928,0.112,1.341c0.307,0.383,1.658,0.938,1.652,0.089
				c0-0.376-0.009-0.78,0.037-1.135c0.028-0.23,0.082-0.412,0.28-0.566c0.119-0.089,0.302-0.102,0.441-0.117
				c0.364-0.033,0.76,0.176,0.985,0.455c0.257,0.313,0.587,0.61,0.8,0.938c0.208,0.32,0.277,0.698,0.516,0.984
				c0.247,0.299,0.492,0.436,0.33,0.856c-0.172,0.441-0.393,0.528-0.774,0.773c-0.352,0.229-0.598,0.565-0.971,0.777
				c-0.295,0.167-0.554,0.431-0.689,0.75c-0.154,0.354-0.341,0.616-0.586,0.915c-0.143,0.173-0.229,0.333-0.316,0.532
				c-0.066,0.146-0.175,0.244-0.188,0.418c-0.019,0.267,0.331,0.771,0.108,1.037c-0.234,0.277-0.665-0.305-0.754-0.483
				c-0.059-0.113-0.028-0.152-0.116-0.261c-0.04-0.048-0.092-0.099-0.139-0.139c-0.136-0.113-0.233-0.208-0.412-0.199
				c-0.298,0.012-0.7,0.157-0.879,0.427c-0.191,0.284-0.229,0.747-0.07,1.072c0.068,0.146,0.187,0.338,0.328,0.437
				c0.134,0.092,0.323,0.076,0.482,0.116c0.21,0.049,0.35,0.123,0.403,0.334c0.133,0.558,0.511,1.533,1.077,1.771
				c0.123,0.051,0.284,0.036,0.396-0.051c0.746-0.579,1.813-0.222,2.532,0.239c0.284,0.183,0.582,0.343,0.862,0.528
				c0.314,0.205,0.676,0.84,1.125,0.671c0.142-0.055,0.198-0.207,0.217-0.379v-0.508c0-0.007-0.001-0.014-0.001-0.02V13.766z"/>
		</g>
		<g id="BLACK" display="none">
			<path display="inline" d="M63.071,6.015c-1.472-1.642-3.551-2.463-6.239-2.463c-2.218,0-3.834,0.421-4.847,1.264
				c-1.013,0.843-1.52,1.979-1.52,3.407c0,0.726,0.128,1.328,0.384,1.808c0.256,0.48,0.656,0.891,1.2,1.232
				c0.544,0.341,1.232,0.629,2.064,0.864c0.832,0.235,1.834,0.48,3.007,0.736c1.216,0.256,2.32,0.539,3.312,0.848
				c0.992,0.31,1.834,0.698,2.527,1.168c0.693,0.469,1.227,1.045,1.6,1.728c0.373,0.683,0.56,1.525,0.56,2.527
				c0,1.003-0.197,1.877-0.592,2.624c-0.395,0.747-0.949,1.37-1.664,1.871c-0.715,0.502-1.568,0.88-2.56,1.136
				c-0.992,0.257-2.096,0.385-3.312,0.385c-3.541,0-6.538-1.131-8.991-3.392l0.864-1.313c0.959,1.003,2.132,1.798,3.519,2.384
				c1.386,0.587,2.944,0.88,4.671,0.88c1.984,0,3.536-0.362,4.655-1.088c1.12-0.725,1.68-1.823,1.68-3.295
				c0-0.747-0.149-1.381-0.448-1.904c-0.299-0.522-0.742-0.976-1.328-1.359c-0.587-0.384-1.328-0.715-2.224-0.992
				c-0.896-0.276-1.941-0.544-3.135-0.8c-1.216-0.256-2.288-0.528-3.215-0.815c-0.928-0.288-1.707-0.65-2.336-1.088
				c-0.629-0.437-1.104-0.965-1.424-1.584c-0.32-0.618-0.479-1.396-0.479-2.335c0-1.024,0.197-1.93,0.592-2.72
				c0.395-0.789,0.944-1.456,1.647-2c0.704-0.544,1.546-0.955,2.528-1.232c0.981-0.277,2.068-0.416,3.263-0.416
				c1.472,0,2.784,0.219,3.936,0.656s2.197,1.104,3.135,2L63.071,6.015z"/>
			<path display="inline" d="M79.164,2.24h1.408l9.598,22.716h-1.727l-3.168-7.486H74.429l-3.167,7.486h-1.76L79.164,2.24z
				 M84.827,16.126L79.868,4.224l-5.055,11.902H84.827z"/>
			<path display="inline" d="M96.824,24.956V2.24h1.633v21.245h13.564v1.472H96.824z"/>
			<path display="inline" d="M126.324,23.612c1.535,0,2.811-0.288,3.822-0.864c1.014-0.575,1.814-1.332,2.4-2.271
				c0.586-0.938,1.002-2.005,1.248-3.199c0.244-1.194,0.367-2.399,0.367-3.615V2.24h1.633v11.422c0,1.515-0.166,2.965-0.496,4.351
				c-0.332,1.388-0.869,2.608-1.615,3.664c-0.748,1.056-1.719,1.893-2.912,2.512c-1.195,0.618-2.666,0.928-4.416,0.928
				c-1.813,0-3.326-0.325-4.543-0.976c-1.215-0.65-2.191-1.515-2.928-2.592s-1.258-2.299-1.566-3.664
				c-0.311-1.364-0.465-2.772-0.465-4.223V2.24h1.631v11.422c0,1.259,0.123,2.485,0.369,3.679c0.244,1.195,0.672,2.256,1.279,3.184
				s1.412,1.675,2.416,2.24C123.551,23.33,124.809,23.612,126.324,23.612z"/>
			<path display="inline" d="M157.807,6.015c-1.471-1.642-3.551-2.463-6.238-2.463c-2.219,0-3.834,0.421-4.848,1.264
				c-1.014,0.843-1.52,1.979-1.52,3.407c0,0.726,0.127,1.328,0.385,1.808c0.256,0.48,0.654,0.891,1.199,1.232
				c0.543,0.341,1.232,0.629,2.063,0.864c0.832,0.235,1.836,0.48,3.008,0.736c1.217,0.256,2.32,0.539,3.313,0.848
				c0.992,0.31,1.834,0.698,2.527,1.168c0.693,0.469,1.227,1.045,1.6,1.728s0.561,1.525,0.561,2.527
				c0,1.003-0.197,1.877-0.592,2.624c-0.396,0.747-0.951,1.37-1.664,1.871c-0.715,0.502-1.568,0.88-2.561,1.136
				c-0.992,0.257-2.096,0.385-3.311,0.385c-3.541,0-6.539-1.131-8.99-3.392l0.863-1.313c0.959,1.003,2.133,1.798,3.52,2.384
				c1.387,0.587,2.943,0.88,4.672,0.88c1.982,0,3.535-0.362,4.654-1.088c1.119-0.725,1.68-1.823,1.68-3.295
				c0-0.747-0.15-1.381-0.447-1.904c-0.299-0.522-0.742-0.976-1.328-1.359c-0.588-0.384-1.328-0.715-2.225-0.992
				c-0.895-0.276-1.941-0.544-3.135-0.8c-1.217-0.256-2.287-0.528-3.215-0.815c-0.928-0.288-1.707-0.65-2.336-1.088
				c-0.629-0.437-1.104-0.965-1.424-1.584c-0.32-0.618-0.48-1.396-0.48-2.335c0-1.024,0.197-1.93,0.592-2.72
				c0.395-0.789,0.943-1.456,1.648-2c0.703-0.544,1.547-0.955,2.527-1.232c0.98-0.277,2.068-0.416,3.264-0.416
				c1.471,0,2.783,0.219,3.936,0.656c1.15,0.437,2.195,1.104,3.135,2L157.807,6.015z"/>
		</g>
		<g id="WHITE">
			<path fill="#FFFFFF" d="M63.071,6.015c-1.472-1.642-3.551-2.463-6.239-2.463c-2.218,0-3.834,0.421-4.847,1.264
				c-1.013,0.843-1.52,1.979-1.52,3.407c0,0.726,0.128,1.328,0.384,1.808c0.256,0.48,0.656,0.891,1.2,1.232
				c0.544,0.341,1.232,0.629,2.064,0.864c0.832,0.235,1.834,0.48,3.007,0.736c1.216,0.256,2.32,0.539,3.312,0.848
				c0.992,0.31,1.834,0.698,2.527,1.168c0.693,0.469,1.227,1.045,1.6,1.728c0.373,0.683,0.56,1.525,0.56,2.527
				c0,1.003-0.197,1.877-0.592,2.624c-0.395,0.747-0.949,1.37-1.664,1.871c-0.715,0.502-1.568,0.88-2.56,1.136
				c-0.992,0.257-2.096,0.385-3.312,0.385c-3.541,0-6.538-1.131-8.991-3.392l0.864-1.313c0.959,1.003,2.132,1.798,3.519,2.384
				c1.386,0.587,2.944,0.88,4.671,0.88c1.984,0,3.536-0.362,4.655-1.088c1.12-0.725,1.68-1.823,1.68-3.295
				c0-0.747-0.149-1.381-0.448-1.904c-0.299-0.522-0.742-0.976-1.328-1.359c-0.587-0.384-1.328-0.715-2.224-0.992
				c-0.896-0.276-1.941-0.544-3.135-0.8c-1.216-0.256-2.288-0.528-3.215-0.815c-0.928-0.288-1.707-0.65-2.336-1.088
				c-0.629-0.437-1.104-0.965-1.424-1.584c-0.32-0.618-0.479-1.396-0.479-2.335c0-1.024,0.197-1.93,0.592-2.72
				c0.395-0.789,0.944-1.456,1.647-2c0.704-0.544,1.546-0.955,2.528-1.232c0.981-0.277,2.068-0.416,3.263-0.416
				c1.472,0,2.784,0.219,3.936,0.656s2.197,1.104,3.135,2L63.071,6.015z"/>
			<path fill="#FFFFFF" d="M79.164,2.24h1.408l9.598,22.716h-1.727l-3.168-7.486H74.429l-3.167,7.486h-1.76L79.164,2.24z
				 M84.827,16.126L79.868,4.224l-5.055,11.902H84.827z"/>
			<path fill="#FFFFFF" d="M96.824,24.956V2.24h1.633v21.245h13.564v1.472H96.824z"/>
			<path fill="#FFFFFF" d="M126.324,23.612c1.535,0,2.811-0.288,3.822-0.864c1.014-0.575,1.814-1.332,2.4-2.271
				c0.586-0.938,1.002-2.005,1.248-3.199c0.244-1.194,0.367-2.399,0.367-3.615V2.24h1.633v11.422c0,1.515-0.166,2.965-0.496,4.351
				c-0.332,1.388-0.869,2.608-1.615,3.664c-0.748,1.056-1.719,1.893-2.912,2.512c-1.195,0.618-2.666,0.928-4.416,0.928
				c-1.813,0-3.326-0.325-4.543-0.976c-1.215-0.65-2.191-1.515-2.928-2.592s-1.258-2.299-1.566-3.664
				c-0.311-1.364-0.465-2.772-0.465-4.223V2.24h1.631v11.422c0,1.259,0.123,2.485,0.369,3.679c0.244,1.195,0.672,2.256,1.279,3.184
				s1.412,1.675,2.416,2.24C123.551,23.33,124.809,23.612,126.324,23.612z"/>
			<path fill="#FFFFFF" d="M157.807,6.015c-1.471-1.642-3.551-2.463-6.238-2.463c-2.219,0-3.834,0.421-4.848,1.264
				c-1.014,0.843-1.52,1.979-1.52,3.407c0,0.726,0.127,1.328,0.385,1.808c0.256,0.48,0.654,0.891,1.199,1.232
				c0.543,0.341,1.232,0.629,2.063,0.864c0.832,0.235,1.836,0.48,3.008,0.736c1.217,0.256,2.32,0.539,3.313,0.848
				c0.992,0.31,1.834,0.698,2.527,1.168c0.693,0.469,1.227,1.045,1.6,1.728s0.561,1.525,0.561,2.527
				c0,1.003-0.197,1.877-0.592,2.624c-0.396,0.747-0.951,1.37-1.664,1.871c-0.715,0.502-1.568,0.88-2.561,1.136
				c-0.992,0.257-2.096,0.385-3.311,0.385c-3.541,0-6.539-1.131-8.99-3.392l0.863-1.313c0.959,1.003,2.133,1.798,3.52,2.384
				c1.387,0.587,2.943,0.88,4.672,0.88c1.982,0,3.535-0.362,4.654-1.088c1.119-0.725,1.68-1.823,1.68-3.295
				c0-0.747-0.15-1.381-0.447-1.904c-0.299-0.522-0.742-0.976-1.328-1.359c-0.588-0.384-1.328-0.715-2.225-0.992
				c-0.895-0.276-1.941-0.544-3.135-0.8c-1.217-0.256-2.287-0.528-3.215-0.815c-0.928-0.288-1.707-0.65-2.336-1.088
				c-0.629-0.437-1.104-0.965-1.424-1.584c-0.32-0.618-0.48-1.396-0.48-2.335c0-1.024,0.197-1.93,0.592-2.72
				c0.395-0.789,0.943-1.456,1.648-2c0.703-0.544,1.547-0.955,2.527-1.232c0.98-0.277,2.068-0.416,3.264-0.416
				c1.471,0,2.783,0.219,3.936,0.656c1.15,0.437,2.195,1.104,3.135,2L157.807,6.015z"/>
		</g>
		<g id="COLORED" display="none">
			<path display="inline" fill="#A03123" d="M63.071,6.015c-1.472-1.642-3.551-2.463-6.239-2.463c-2.218,0-3.834,0.421-4.847,1.264
				c-1.013,0.843-1.52,1.979-1.52,3.407c0,0.726,0.128,1.328,0.384,1.808c0.256,0.48,0.656,0.891,1.2,1.232
				c0.544,0.341,1.232,0.629,2.064,0.864c0.832,0.235,1.834,0.48,3.007,0.736c1.216,0.256,2.32,0.539,3.312,0.848
				c0.992,0.31,1.834,0.698,2.527,1.168c0.693,0.469,1.227,1.045,1.6,1.728c0.373,0.683,0.56,1.525,0.56,2.527
				c0,1.003-0.197,1.877-0.592,2.624c-0.395,0.747-0.949,1.37-1.664,1.871c-0.715,0.502-1.568,0.88-2.56,1.136
				c-0.992,0.257-2.096,0.385-3.312,0.385c-3.541,0-6.538-1.131-8.991-3.392l0.864-1.313c0.959,1.003,2.132,1.798,3.519,2.384
				c1.386,0.587,2.944,0.88,4.671,0.88c1.984,0,3.536-0.362,4.655-1.088c1.12-0.725,1.68-1.823,1.68-3.295
				c0-0.747-0.149-1.381-0.448-1.904c-0.299-0.522-0.742-0.976-1.328-1.359c-0.587-0.384-1.328-0.715-2.224-0.992
				c-0.896-0.276-1.941-0.544-3.135-0.8c-1.216-0.256-2.288-0.528-3.215-0.815c-0.928-0.288-1.707-0.65-2.336-1.088
				c-0.629-0.437-1.104-0.965-1.424-1.584c-0.32-0.618-0.479-1.396-0.479-2.335c0-1.024,0.197-1.93,0.592-2.72
				c0.395-0.789,0.944-1.456,1.647-2c0.704-0.544,1.546-0.955,2.528-1.232c0.981-0.277,2.068-0.416,3.263-0.416
				c1.472,0,2.784,0.219,3.936,0.656s2.197,1.104,3.135,2L63.071,6.015z"/>
			<path display="inline" fill="#A03123" d="M79.164,2.24h1.408l9.598,22.716h-1.727l-3.168-7.486H74.429l-3.167,7.486h-1.76
				L79.164,2.24z M84.827,16.126L79.868,4.224l-5.055,11.902H84.827z"/>
			<path display="inline" fill="#A03123" d="M96.824,24.956V2.24h1.633v21.245h13.564v1.472H96.824z"/>
			<path display="inline" fill="#A03123" d="M126.324,23.612c1.535,0,2.811-0.288,3.822-0.864c1.014-0.575,1.814-1.332,2.4-2.271
				c0.586-0.938,1.002-2.005,1.248-3.199c0.244-1.194,0.367-2.399,0.367-3.615V2.24h1.633v11.422c0,1.515-0.166,2.965-0.496,4.351
				c-0.332,1.388-0.869,2.608-1.615,3.664c-0.748,1.056-1.719,1.893-2.912,2.512c-1.195,0.618-2.666,0.928-4.416,0.928
				c-1.813,0-3.326-0.325-4.543-0.976c-1.215-0.65-2.191-1.515-2.928-2.592s-1.258-2.299-1.566-3.664
				c-0.311-1.364-0.465-2.772-0.465-4.223V2.24h1.631v11.422c0,1.259,0.123,2.485,0.369,3.679c0.244,1.195,0.672,2.256,1.279,3.184
				s1.412,1.675,2.416,2.24C123.551,23.33,124.809,23.612,126.324,23.612z"/>
			<path display="inline" fill="#A03123" d="M157.807,6.015c-1.471-1.642-3.551-2.463-6.238-2.463c-2.219,0-3.834,0.421-4.848,1.264
				c-1.014,0.843-1.52,1.979-1.52,3.407c0,0.726,0.127,1.328,0.385,1.808c0.256,0.48,0.654,0.891,1.199,1.232
				c0.543,0.341,1.232,0.629,2.063,0.864c0.832,0.235,1.836,0.48,3.008,0.736c1.217,0.256,2.32,0.539,3.313,0.848
				c0.992,0.31,1.834,0.698,2.527,1.168c0.693,0.469,1.227,1.045,1.6,1.728s0.561,1.525,0.561,2.527
				c0,1.003-0.197,1.877-0.592,2.624c-0.396,0.747-0.951,1.37-1.664,1.871c-0.715,0.502-1.568,0.88-2.561,1.136
				c-0.992,0.257-2.096,0.385-3.311,0.385c-3.541,0-6.539-1.131-8.99-3.392l0.863-1.313c0.959,1.003,2.133,1.798,3.52,2.384
				c1.387,0.587,2.943,0.88,4.672,0.88c1.982,0,3.535-0.362,4.654-1.088c1.119-0.725,1.68-1.823,1.68-3.295
				c0-0.747-0.15-1.381-0.447-1.904c-0.299-0.522-0.742-0.976-1.328-1.359c-0.588-0.384-1.328-0.715-2.225-0.992
				c-0.895-0.276-1.941-0.544-3.135-0.8c-1.217-0.256-2.287-0.528-3.215-0.815c-0.928-0.288-1.707-0.65-2.336-1.088
				c-0.629-0.437-1.104-0.965-1.424-1.584c-0.32-0.618-0.48-1.396-0.48-2.335c0-1.024,0.197-1.93,0.592-2.72
				c0.395-0.789,0.943-1.456,1.648-2c0.703-0.544,1.547-0.955,2.527-1.232c0.98-0.277,2.068-0.416,3.264-0.416
				c1.471,0,2.783,0.219,3.936,0.656c1.15,0.437,2.195,1.104,3.135,2L157.807,6.015z"/>
		</g>
	</g>
	<g>
	</g>
	<g>
	</g>
	<g>
	</g>
	<g>
	</g>
	<g>
	</g>
	<g>
	</g>
</g>
</svg>
