<?xml version="1.0" encoding="utf-8"?>
<!-- Generator: Adobe Illustrator 16.0.0, SVG Export Plug-In . SVG Version: 6.00 Build 0)  -->
<!DOCTYPE svg PUBLIC "-//W3C//DTD SVG 1.1//EN" "http://www.w3.org/Graphics/SVG/1.1/DTD/svg11.dtd">
<svg version="1.1" id="Layer_1" xmlns="http://www.w3.org/2000/svg" xmlns:xlink="http://www.w3.org/1999/xlink" x="0px" y="0px"
	 width="476.336px" height="139px" viewBox="0 0 476.336 139" enable-background="new 0 0 476.336 139" xml:space="preserve">
<line fill="#991B1E" stroke="#991B1E" x1="387.283" y1="103.851" x2="476.336" y2="103.851"/>
<line fill="#991B1E" stroke="#991B1E" x1="0" y1="103.851" x2="91.336" y2="103.851"/>
<g>
	<g>
		<defs>
			<rect id="SVGID_1_" x="69.92" y="-58.447" width="334.285" height="332.597"/>
		</defs>
		<clipPath id="SVGID_2_">
			<use xlink:href="#SVGID_1_"  overflow="visible"/>
		</clipPath>
		<g clip-path="url(#SVGID_2_)">
			<defs>
				<rect id="SVGID_3_" x="69.92" y="-58.447" width="334.285" height="332.597"/>
			</defs>
			<clipPath id="SVGID_4_">
				<use xlink:href="#SVGID_3_"  overflow="visible"/>
			</clipPath>
			<path clip-path="url(#SVGID_4_)" fill="#00BCE4" d="M119.531,88.926v4.105c6.073,0.59,10.883,5.565,11.213,11.71h4.089
				C134.501,96.341,127.862,89.534,119.531,88.926"/>
			<path clip-path="url(#SVGID_4_)" fill="#00BCE4" d="M119.531,96.112v6.591c0,1.127,0.917,2.039,2.042,2.039h6.101
				C127.36,100.285,123.916,96.679,119.531,96.112"/>
			<path clip-path="url(#SVGID_4_)" fill="#00BCE4" d="M119.531,81.759v4.099c10.021,0.618,18.024,8.796,18.362,18.884h4.1
				C141.652,92.393,131.807,82.382,119.531,81.759"/>
			<path clip-path="url(#SVGID_4_)" fill="#00BCE4" d="M149.133,102.271c-1.636-14.221-12.917-25.492-27.145-27.121
				c-0.012-0.005-0.03-0.005-0.044-0.007c-0.053-0.008-0.104-0.011-0.159-0.019l-0.001,0.008c-0.067-0.013-0.14-0.026-0.21-0.026
				c-1.125,0-2.042,0.913-2.042,2.04v1.551c13.966,0.625,25.178,12.009,25.524,26.044h2.084c1.121,0,2.033-0.903,2.038-2.028
				c0-0.003,0.006-0.009,0.006-0.009C149.183,102.557,149.161,102.413,149.133,102.271"/>
			<path clip-path="url(#SVGID_4_)" fill="#B32317" d="M119.531,109.046v25.559c0,1.122,0.917,2.037,2.042,2.037
				c0.07,0,0.144-0.012,0.21-0.021l0.001,0.002c0.055-0.008,0.105-0.012,0.159-0.018c0.015-0.004,0.032-0.004,0.044-0.008
				c14.228-1.631,25.509-12.9,27.145-27.12c0.027-0.139,0.05-0.283,0.05-0.431c0-0.003-0.006-0.007-0.006-0.007
				c-0.005-1.126-0.917-2.034-2.038-2.034h-25.566C120.448,107.005,119.531,107.92,119.531,109.046"/>
			<polygon clip-path="url(#SVGID_4_)" fill="#FFFFFF" points="129.328,116.848 124.41,116.848 124.41,121.76 129.328,121.76 
				129.328,126.677 134.239,126.677 134.239,121.76 139.16,121.76 139.16,116.848 134.239,116.848 134.239,111.932 129.328,111.932 
							"/>
			<path clip-path="url(#SVGID_4_)" fill="#026CB6" d="M116.667,123.911c-0.18,0-0.329,0.034-0.482,0.125
				c-0.338,0.196-0.488,0.586-0.695,0.899c-0.291,0.437-0.583,0.874-0.851,1.327c-0.4,0.668-0.811,1.371-1.352,1.978
				c-1.16,1.307-2.604,2.713-2.855,4.514c-0.075,0.521-0.095,1.122-0.274,1.616c-0.123,0.324-0.13,0.777,0.097,1.075
				c0.116,0.146,0.343,0.267,0.546,0.358c1.327,0.334,2.69,0.59,4.077,0.752c0.138,0.029,0.282,0.049,0.432,0.049l0.001-0.004
				c1.125,0,2.032-0.905,2.037-2.026V134.1v-4.852v-3.028v-1.358c0-0.056,0.001-0.118,0.001-0.18c0-0.184-0.014-0.368-0.126-0.521
				C117.093,123.988,116.876,123.911,116.667,123.911"/>
			<path clip-path="url(#SVGID_4_)" fill="#026CB6" d="M106.463,133.906c0.114-0.031,0.316-0.09,0.404-0.193
				c0.25-0.307,0.13-0.894,0.13-1.247c0.002-0.488,0.052-0.976,0.142-1.457c0.174-0.95,0.499-1.868,0.842-2.766
				c0.398-1.044,0.78-2.112,0.914-3.193c0.096-0.814-0.012-1.712-0.012-2.531c0-0.844,0.069-1.722-0.113-2.534
				c-0.174-0.776-0.614-1.024-1.126-1.566c-0.432-0.461-0.727-0.989-1.098-1.488c-0.571-0.763-1.195-1.266-1.435-2.226
				c-0.224-0.911,0.024-1.829,0.023-2.75c0-0.478,0.01-0.954,0-1.43c-0.008-0.506-0.266-0.75-0.336-1.21
				c-0.063-0.446-0.08-0.973-0.295-1.35c-0.16-0.278-0.51-0.418-0.726-0.603c-0.554-0.476-0.925-1.089-1.479-1.487
				c-0.684-0.486-1.52-0.583-2.316-0.876c-0.728-0.267-1.348-0.552-2.03-0.938c-0.388-0.221-0.708-0.396-1.079-0.662
				c-0.371-0.265-0.511-0.542-0.738-0.935c-0.221-0.373-0.359-0.619-0.471-1.073c-0.092-0.358-0.125-0.737-0.214-1.096
				c-0.13-0.489-0.167-1.023-0.364-1.492c-0.155-0.349-0.425-0.647-0.609-0.954c-0.461-0.762-1.205-1.265-1.879-1.814
				c-0.17-0.135-0.339-0.279-0.499-0.429c-0.387-0.371-0.721-0.801-1.263-0.947c-0.261-0.066-0.577-0.102-0.82,0.02
				c-0.281,0.145-0.519,0.466-0.683,0.792c-0.136,0.386-0.271,0.777-0.393,1.171c-0.106,0.368-0.212,0.734-0.314,1.102
				c-0.366,1.348-0.643,2.719-0.829,4.105c-0.081,0.616-0.137,1.234-0.182,1.858c-0.005,0.097-0.014,0.196-0.021,0.29
				c-0.039,0.633-0.06,1.263-0.061,1.894c0,0.113,0.01,0.226,0.01,0.34c0.003,0.403,0.011,0.799,0.032,1.197
				c0.014,0.292,0.039,0.579,0.06,0.87c0.017,0.216,0.03,0.433,0.053,0.649c0.035,0.341,0.076,0.676,0.118,1.011
				c0.021,0.154,0.041,0.305,0.065,0.462c0.055,0.38,0.116,0.756,0.184,1.132c0.019,0.084,0.033,0.169,0.049,0.254
				c1.928,9.881,8.561,18.07,17.475,22.156c0.152,0.03,0.31,0.036,0.476,0.036C106.21,133.997,106.325,133.943,106.463,133.906"/>
			<path clip-path="url(#SVGID_4_)" fill="#026CB6" d="M117.346,106.499v-4.464v-5.17v-5.397v-5.14v-4.4v-3.184v-1.48v-0.049
				c0-1.121-0.903-2.029-2.038-2.042c-0.154,0-0.3,0.021-0.448,0.055c-0.853,0.195-1.759,0.24-2.625,0.419
				c-0.871,0.178-1.733,0.394-2.587,0.646c-1.272,0.377-2.526,0.841-3.737,1.382c-0.604,0.268-1.2,0.554-1.784,0.86
				c-0.676,0.354-1.307,0.724-1.819,1.221c-0.373,0.363-0.68,0.791-0.9,1.326c-0.422,1.045-0.508,2.178,0.263,3.146
				c0.719,0.899,3.893,2.205,3.878,0.21c0-0.882-0.021-1.833,0.086-2.665c0.068-0.541,0.196-0.967,0.659-1.327
				c0.279-0.212,0.708-0.243,1.037-0.275c0.854-0.077,1.783,0.413,2.313,1.065c0.603,0.737,1.376,1.433,1.878,2.204
				c0.488,0.751,0.65,1.641,1.208,2.311c0.582,0.703,1.158,1.023,0.777,2.011c-0.404,1.036-0.924,1.24-1.818,1.816
				c-0.825,0.536-1.403,1.325-2.279,1.823c-0.692,0.393-1.299,1.01-1.62,1.759c-0.36,0.83-0.799,1.445-1.374,2.148
				c-0.334,0.407-0.535,0.783-0.742,1.25c-0.155,0.345-0.412,0.573-0.442,0.982c-0.044,0.628,0.776,1.811,0.254,2.433
				c-0.551,0.65-1.563-0.715-1.771-1.135c-0.135-0.265-0.065-0.356-0.273-0.612c-0.093-0.112-0.214-0.231-0.326-0.326
				c-0.316-0.265-0.546-0.486-0.967-0.468c-0.697,0.029-1.642,0.37-2.062,1.002c-0.449,0.666-0.534,1.754-0.165,2.517
				c0.162,0.341,0.437,0.794,0.771,1.027c0.313,0.213,0.759,0.178,1.132,0.271c0.493,0.118,0.821,0.29,0.945,0.785
				c0.313,1.31,1.201,3.597,2.53,4.162c0.29,0.117,0.666,0.08,0.928-0.123c1.75-1.358,4.258-0.52,5.945,0.561
				c0.666,0.429,1.365,0.803,2.024,1.24c0.738,0.484,1.585,1.974,2.64,1.576c0.334-0.128,0.465-0.487,0.51-0.89v-1.192
				c0-0.016-0.001-0.031-0.001-0.044V106.499z"/>
			<polygon clip-path="url(#SVGID_4_)" fill="#FFFFFF" points="181.938,89.624 181.938,92.82 176.426,92.82 176.426,109.537 
				172.396,109.537 172.396,92.82 166.885,92.82 166.885,89.624 			"/>
			<polygon clip-path="url(#SVGID_4_)" fill="#FFFFFF" points="190.373,109.538 190.373,89.649 204.314,89.649 204.314,92.846 
				194.399,92.846 194.399,97.584 201.603,97.584 201.603,100.778 194.399,100.778 194.399,106.344 204.635,106.344 
				204.635,109.538 			"/>
			<polygon clip-path="url(#SVGID_4_)" fill="#FFFFFF" points="213.421,109.538 213.421,89.649 217.449,89.649 217.449,106.344 
				226.608,106.344 226.608,109.538 			"/>
			<polygon clip-path="url(#SVGID_4_)" fill="#FFFFFF" points="235.221,109.538 235.221,89.649 249.165,89.649 249.165,92.846 
				239.245,92.846 239.245,97.584 246.448,97.584 246.448,100.778 239.245,100.778 239.245,106.344 249.485,106.344 
				249.485,109.538 			"/>
			<polygon clip-path="url(#SVGID_4_)" fill="#FFFFFF" points="258.445,109.538 258.445,89.649 262.474,89.649 262.474,97.584 
				270.582,97.584 270.582,89.649 274.607,89.649 274.607,109.538 270.582,109.538 270.582,101 262.474,101 262.474,109.538 			"/>
			<polygon clip-path="url(#SVGID_4_)" fill="#FFFFFF" points="284.91,109.538 284.91,89.649 298.858,89.649 298.858,92.846 
				288.938,92.846 288.938,97.584 296.144,97.584 296.144,100.778 288.938,100.778 288.938,106.344 299.178,106.344 
				299.178,109.538 			"/>
			<path clip-path="url(#SVGID_4_)" fill="#FFFFFF" d="M312.134,89.623h5.016l5.984,19.915h-3.996l-1.169-4.296h-6.652l-1.257,4.296
				h-3.994L312.134,89.623z M312.193,102.1h4.9l-2.362-8.647h-0.059L312.193,102.1z"/>
			<polygon clip-path="url(#SVGID_4_)" fill="#FFFFFF" points="331.187,109.538 331.187,89.649 335.22,89.649 335.22,106.344 
				344.376,106.344 344.376,109.538 			"/>
			<polygon clip-path="url(#SVGID_4_)" fill="#FFFFFF" points="363.491,89.624 363.491,92.82 357.982,92.82 357.982,109.537 
				353.949,109.537 353.949,92.82 348.438,92.82 348.438,89.624 			"/>
			<polygon clip-path="url(#SVGID_4_)" fill="#FFFFFF" points="371.924,109.538 371.924,89.649 375.949,89.649 375.949,97.584 
				384.066,97.584 384.066,89.649 388.091,89.649 388.091,109.538 384.066,109.538 384.066,101 375.949,101 375.949,109.538 			"/>
			<rect x="168.312" y="117.701" clip-path="url(#SVGID_4_)" fill="#807F83" stroke="#FFFFFF" width="0.64" height="6.593"/>
			<polygon clip-path="url(#SVGID_4_)" fill="#807F83" stroke="#FFFFFF" points="174.5,117.702 175.576,117.702 178.879,123.197 
				178.905,123.197 178.905,117.702 179.529,117.702 179.529,124.294 178.879,124.294 175.156,118.194 175.131,118.194 
				175.131,124.294 174.5,124.294 			"/>
			<polygon clip-path="url(#SVGID_4_)" fill="#807F83" stroke="#FFFFFF" points="184.362,117.702 189.131,117.702 189.131,118.194 
				187.062,118.194 187.062,124.294 186.428,124.294 186.428,118.194 184.362,118.194 			"/>
			<polygon clip-path="url(#SVGID_4_)" fill="#807F83" stroke="#FFFFFF" points="193.952,124.295 193.952,117.703 197.93,117.703 
				197.93,118.195 194.593,118.195 194.593,120.624 196.994,120.624 196.994,121.119 194.593,121.119 194.593,123.802 
				198.12,123.802 198.12,124.295 			"/>
			<path clip-path="url(#SVGID_4_)" fill="#807F83" stroke="#FFFFFF" d="M207.646,124.294h-0.699l-1.62-3.013h-1.799v3.013h-0.646
				v-6.592h2.362c1.369,0,2.14,0.713,2.14,1.791c0,0.866-0.449,1.441-1.448,1.676L207.646,124.294z M203.528,120.789h1.716
				c0.929,0,1.501-0.483,1.501-1.296s-0.5-1.299-1.501-1.299h-1.716V120.789z"/>
			<polygon clip-path="url(#SVGID_4_)" fill="#807F83" stroke="#FFFFFF" points="212.887,117.702 213.959,117.702 217.268,123.197 
				217.29,123.197 217.29,117.702 217.923,117.702 217.923,124.294 217.268,124.294 213.544,118.194 213.525,118.194 
				213.525,124.294 212.887,124.294 			"/>
			<path clip-path="url(#SVGID_4_)" fill="#807F83" stroke="#FFFFFF" d="M224.924,117.702h0.974l2.199,6.593h-0.671l-0.706-2.154
				h-2.636l-0.718,2.154h-0.667L224.924,117.702z M226.571,121.644l-1.153-3.448h-0.021l-1.149,3.448H226.571z"/>
			<polygon clip-path="url(#SVGID_4_)" fill="#807F83" stroke="#FFFFFF" points="231.32,117.702 236.087,117.702 236.087,118.194 
				234.028,118.194 234.028,124.294 233.39,124.294 233.39,118.194 231.32,118.194 			"/>
			<rect x="240.975" y="117.701" clip-path="url(#SVGID_4_)" fill="#807F83" stroke="#FFFFFF" width="0.643" height="6.593"/>
			<path clip-path="url(#SVGID_4_)" fill="#807F83" stroke="#FFFFFF" d="M252.161,120.998c0,1.942-1.002,3.388-2.752,3.388
				c-1.745,0-2.747-1.445-2.747-3.388c0-1.944,1.002-3.387,2.747-3.387C251.159,117.611,252.161,119.054,252.161,120.998
				 M251.526,120.998c0-1.855-0.828-2.896-2.117-2.896c-1.279,0-2.107,1.041-2.107,2.896c0,1.854,0.828,2.895,2.107,2.895
				C250.698,123.893,251.526,122.853,251.526,120.998"/>
			<polygon clip-path="url(#SVGID_4_)" fill="#807F83" stroke="#FFFFFF" points="257.161,117.702 258.235,117.702 261.546,123.197 
				261.566,123.197 261.566,117.702 262.201,117.702 262.201,124.294 261.546,124.294 257.821,118.194 257.804,118.194 
				257.804,124.294 257.161,124.294 			"/>
			<path clip-path="url(#SVGID_4_)" fill="#807F83" stroke="#FFFFFF" d="M269.198,117.702h0.975l2.202,6.593h-0.674l-0.705-2.154
				h-2.633l-0.719,2.154h-0.67L269.198,117.702z M270.849,121.644l-1.158-3.448h-0.02l-1.147,3.448H270.849z"/>
			<polygon clip-path="url(#SVGID_4_)" fill="#807F83" stroke="#FFFFFF" points="277.156,117.702 277.793,117.702 277.793,123.802 
				280.896,123.802 280.896,124.294 277.156,124.294 			"/>
			<path clip-path="url(#SVGID_4_)" fill="#807F83" stroke="#FFFFFF" d="M291.783,124.295v-6.592h2.107
				c1.655,0,2.353,0.73,2.353,1.835c0,1.104-0.697,1.833-2.353,1.833h-1.467v2.924H291.783z M292.424,120.88h1.467
				c1.207,0,1.722-0.477,1.722-1.342c0-0.867-0.515-1.343-1.722-1.343h-1.467V120.88z"/>
			<path clip-path="url(#SVGID_4_)" fill="#807F83" stroke="#FFFFFF" d="M302.396,117.702h0.974l2.206,6.593h-0.682l-0.703-2.154
				h-2.63l-0.716,2.154h-0.673L302.396,117.702z M304.047,121.644l-1.16-3.448h-0.022l-1.143,3.448H304.047z"/>
			<path clip-path="url(#SVGID_4_)" fill="#807F83" stroke="#FFFFFF" d="M315.102,124.294h-0.687l-1.62-3.013h-1.809v3.013h-0.631
				v-6.592h2.345c1.38,0,2.149,0.713,2.149,1.791c0,0.866-0.454,1.441-1.451,1.676L315.102,124.294z M310.986,120.789h1.714
				c0.929,0,1.511-0.483,1.511-1.296s-0.502-1.299-1.511-1.299h-1.714V120.789z"/>
			<polygon clip-path="url(#SVGID_4_)" fill="#807F83" stroke="#FFFFFF" points="319.324,117.702 324.094,117.702 324.094,118.194 
				322.025,118.194 322.025,124.294 321.393,124.294 321.393,118.194 319.324,118.194 			"/>
			<polygon clip-path="url(#SVGID_4_)" fill="#807F83" stroke="#FFFFFF" points="328.922,117.702 329.996,117.702 333.305,123.197 
				333.323,123.197 333.323,117.702 333.963,117.702 333.963,124.294 333.305,124.294 329.581,118.194 329.56,118.194 
				329.56,124.294 328.922,124.294 			"/>
			<polygon clip-path="url(#SVGID_4_)" fill="#807F83" stroke="#FFFFFF" points="339.455,124.295 339.455,117.703 343.434,117.703 
				343.434,118.195 340.081,118.195 340.081,120.624 342.492,120.624 342.492,121.119 340.081,121.119 340.081,123.802 
				343.613,123.802 343.613,124.295 			"/>
			<path clip-path="url(#SVGID_4_)" fill="#807F83" stroke="#FFFFFF" d="M353.144,124.294h-0.703l-1.618-3.013h-1.807v3.013h-0.638
				v-6.592h2.357c1.368,0,2.144,0.713,2.144,1.791c0,0.866-0.461,1.441-1.448,1.676L353.144,124.294z M349.016,120.789h1.72
				c0.927,0,1.505-0.483,1.505-1.296s-0.496-1.299-1.505-1.299h-1.72V120.789z"/>
			<path clip-path="url(#SVGID_4_)" fill="#807F83" stroke="#FFFFFF" d="M358.311,122.45c0.265,1.004,0.891,1.441,1.989,1.441
				c0.871,0,1.39-0.521,1.39-1.315c0-1.772-3.774-1.077-3.774-3.26c0-0.972,0.721-1.706,2.006-1.706
				c1.102,0,1.916,0.567,2.236,1.581l-0.555,0.154c-0.248-0.729-0.794-1.244-1.682-1.244c-0.802,0-1.369,0.442-1.369,1.215
				c0,0.449,0.142,0.771,1.418,1.223c1.968,0.695,2.36,1.151,2.36,2.105c0,1.119-1,1.741-2.132,1.741
				c-1.327,0-2.083-0.557-2.475-1.762L358.311,122.45z"/>
			<polygon clip-path="url(#SVGID_4_)" fill="#807F83" stroke="#FFFFFF" points="367.31,117.702 367.939,117.702 367.939,120.623 
				371.717,120.623 371.717,117.702 372.352,117.702 372.352,124.294 371.717,124.294 371.717,121.118 367.939,121.118 
				367.939,124.294 367.31,124.294 			"/>
			<rect x="377.899" y="117.701" clip-path="url(#SVGID_4_)" fill="#807F83" stroke="#FFFFFF" width="0.637" height="6.593"/>
			<path clip-path="url(#SVGID_4_)" fill="#807F83" stroke="#FFFFFF" d="M384.084,124.295v-6.592h2.11
				c1.654,0,2.349,0.73,2.349,1.835c0,1.104-0.694,1.833-2.349,1.833h-1.472v2.924H384.084z M384.723,120.88h1.472
				c1.201,0,1.713-0.477,1.713-1.342c0-0.867-0.512-1.343-1.713-1.343h-1.472V120.88z"/>
		</g>
	</g>
</g>
<g>
	<g>
		<path fill="#991B1E" d="M57.343,23.797c-1.3-1.473-3.033-2.665-5.2-3.575c-2.167-0.91-4.637-1.365-7.41-1.365
			c-4.074,0-7.042,0.77-8.905,2.307c-1.864,1.539-2.795,3.63-2.795,6.272c0,1.388,0.249,2.525,0.747,3.413
			c0.498,0.889,1.268,1.658,2.308,2.308s2.373,1.214,3.998,1.69c1.625,0.478,3.542,0.954,5.752,1.43
			c2.47,0.52,4.69,1.105,6.663,1.755c1.971,0.65,3.65,1.462,5.038,2.438c1.386,0.975,2.448,2.156,3.185,3.542
			c0.736,1.387,1.105,3.12,1.105,5.2c0,2.124-0.413,3.965-1.235,5.525c-0.823,1.56-1.972,2.86-3.445,3.9
			c-1.474,1.04-3.229,1.81-5.265,2.308c-2.037,0.498-4.269,0.748-6.695,0.748c-7.15,0-13.325-2.231-18.525-6.695l2.275-3.705
			c0.823,0.867,1.809,1.69,2.958,2.47c1.147,0.78,2.426,1.462,3.835,2.047c1.408,0.585,2.914,1.04,4.518,1.365
			c1.603,0.325,3.292,0.487,5.07,0.487c3.683,0,6.554-0.66,8.613-1.982c2.058-1.321,3.087-3.325,3.087-6.012
			c0-1.43-0.292-2.633-0.877-3.608c-0.585-0.975-1.462-1.82-2.633-2.535c-1.17-0.715-2.622-1.333-4.355-1.853
			c-1.733-0.52-3.749-1.04-6.045-1.56c-2.427-0.563-4.55-1.148-6.37-1.755c-1.82-0.606-3.358-1.365-4.615-2.275
			c-1.257-0.91-2.2-2.003-2.828-3.282c-0.628-1.278-0.942-2.849-0.942-4.712c0-2.123,0.4-4.019,1.203-5.688
			c0.801-1.668,1.938-3.055,3.412-4.16c1.473-1.105,3.207-1.95,5.2-2.535c1.993-0.585,4.203-0.877,6.63-0.877
			c3.077,0,5.818,0.466,8.223,1.397c2.405,0.933,4.583,2.243,6.533,3.933L57.343,23.797z"/>
		<path fill="#991B1E" d="M86.593,15.152h3.835l19.175,46.15h-4.81l-5.98-14.43H78.078l-5.915,14.43h-4.875L86.593,15.152z
			 M97.773,43.297l-9.295-22.815l-9.425,22.815H97.773z"/>
		<path fill="#991B1E" d="M119.483,61.302v-46.15h4.55v42.12h26.65v4.03H119.483z"/>
		<path fill="#991B1E" d="M176.488,57.532c2.903,0,5.319-0.552,7.248-1.658c1.928-1.105,3.466-2.556,4.615-4.355
			c1.147-1.797,1.95-3.845,2.405-6.142c0.455-2.296,0.683-4.615,0.683-6.955v-23.27h4.55v23.27c0,3.12-0.347,6.077-1.04,8.873
			c-0.693,2.795-1.81,5.255-3.347,7.377c-1.539,2.124-3.542,3.813-6.013,5.07c-2.47,1.257-5.482,1.885-9.035,1.885
			c-3.64,0-6.706-0.66-9.197-1.983c-2.492-1.321-4.496-3.065-6.013-5.232c-1.517-2.166-2.6-4.636-3.25-7.41
			c-0.65-2.773-0.975-5.633-0.975-8.58v-23.27h4.485v23.27c0,2.427,0.237,4.789,0.715,7.085c0.477,2.297,1.289,4.333,2.438,6.11
			c1.147,1.777,2.675,3.208,4.583,4.29C171.244,56.99,173.628,57.532,176.488,57.532z"/>
		<path fill="#991B1E" d="M237.066,23.797c-1.299-1.473-3.033-2.665-5.199-3.575c-2.168-0.91-4.637-1.365-7.41-1.365
			c-4.074,0-7.042,0.77-8.905,2.307c-1.864,1.539-2.795,3.63-2.795,6.272c0,1.388,0.249,2.525,0.747,3.413
			c0.498,0.889,1.268,1.658,2.308,2.308s2.373,1.214,3.998,1.69c1.625,0.478,3.542,0.954,5.752,1.43
			c2.469,0.52,4.689,1.105,6.662,1.755c1.971,0.65,3.65,1.462,5.037,2.438s2.447,2.156,3.186,3.542
			c0.736,1.387,1.105,3.12,1.105,5.2c0,2.124-0.412,3.965-1.236,5.525c-0.822,1.56-1.971,2.86-3.443,3.9
			c-1.475,1.04-3.23,1.81-5.266,2.308c-2.037,0.498-4.27,0.748-6.695,0.748c-7.15,0-13.325-2.231-18.525-6.695l2.275-3.705
			c0.823,0.867,1.809,1.69,2.958,2.47c1.147,0.78,2.427,1.462,3.835,2.047c1.407,0.585,2.914,1.04,4.518,1.365
			c1.602,0.325,3.293,0.487,5.071,0.487c3.682,0,6.553-0.66,8.611-1.982c2.059-1.321,3.088-3.325,3.088-6.012
			c0-1.43-0.293-2.633-0.877-3.608c-0.586-0.975-1.463-1.82-2.633-2.535c-1.17-0.715-2.623-1.333-4.355-1.853
			c-1.734-0.52-3.748-1.04-6.045-1.56c-2.428-0.563-4.55-1.148-6.37-1.755c-1.82-0.606-3.359-1.365-4.615-2.275
			c-1.257-0.91-2.2-2.003-2.828-3.282c-0.628-1.278-0.942-2.849-0.942-4.712c0-2.123,0.4-4.019,1.203-5.688
			c0.801-1.668,1.938-3.055,3.412-4.16c1.473-1.105,3.207-1.95,5.2-2.535s4.204-0.877,6.629-0.877c3.076,0,5.818,0.466,8.223,1.397
			c2.406,0.933,4.582,2.243,6.533,3.933L237.066,23.797z"/>
	</g>
</g>
<g>
</g>
<g>
</g>
<g>
</g>
<g>
</g>
<g>
</g>
<g>
</g>
</svg>
